<svg xmlns="http://www.w3.org/2000/svg" xmlns:xlink="http://www.w3.org/1999/xlink" id="uuid-536f4a97-1738-45e3-a633-38620a41271c" width="133.2" height="133.2" viewBox="0 0 133.2 133.2"><metadata><rdf:RDF xmlns:rdf="http://www.w3.org/1999/02/22-rdf-syntax-ns#" xmlns:dc="http://purl.org/dc/elements/1.1/"><rdf:Description><dc:creator>RealFaviconGenerator</dc:creator><dc:source>https://realfavicongenerator.net</dc:source></rdf:Description></rdf:RDF></metadata><defs><linearGradient id="uuid-1aa1d343-49c1-40f3-9289-88f5ec081ab9" x1="84.63" y1="39.14" x2="29.72" y2="94.05" gradientTransform="translate(-25.97 83.96) rotate(-55.62)" gradientUnits="userSpaceOnUse"><stop offset="0" stop-color="#d28529"></stop><stop offset=".06" stop-color="#dd962c"></stop><stop offset=".16" stop-color="#ecae31"></stop><stop offset=".26" stop-color="#f6bf35"></stop><stop offset=".37" stop-color="#fcc937"></stop><stop offset=".51" stop-color="#ffcd38"></stop><stop offset=".9" stop-color="#fec53d"></stop><stop offset="1" stop-color="#fec340"></stop></linearGradient><linearGradient id="uuid-9ef529fa-570e-4d6c-98ae-23eb8d8b7414" x1="103.48" y1="39.14" x2="48.56" y2="94.05" gradientTransform="translate(-25.97 83.96) rotate(-55.62)" gradientUnits="userSpaceOnUse"><stop offset="0" stop-color="#5374b9"></stop><stop offset=".04" stop-color="#5879bc"></stop><stop offset=".16" stop-color="#6183c2"></stop><stop offset=".3" stop-color="#6587c5"></stop><stop offset=".41" stop-color="#7594cb"></stop><stop offset=".63" stop-color="#a0b6dc"></stop><stop offset=".89" stop-color="#dee7f5"></stop></linearGradient><linearGradient id="uuid-37887cb2-17c7-45c0-b521-0eef24caeb44" x1="12.61" y1="106.8" x2="106.8" y2="12.61" gradientTransform="translate(-25.95 49.11) rotate(-34.3)" xlink:href="#uuid-9ef529fa-570e-4d6c-98ae-23eb8d8b7414"></linearGradient><linearGradient id="uuid-fee02b83-0944-4965-b73f-939af3150759" x1="25.22" y1="121.77" x2="166.7" y2="-19.71" gradientTransform="translate(-25.95 49.11) rotate(-34.3)" xlink:href="#uuid-1aa1d343-49c1-40f3-9289-88f5ec081ab9"></linearGradient></defs><path d="m40.91,104.14c20.73,14.19,49.04,8.88,63.23-11.86l-13.58-9.29-2.63-1.8-42.67-29.19-.63-.43-15.58-10.66c-14.19,20.73-8.88,49.04,11.86,63.23Z" style="fill:url(#uuid-1aa1d343-49c1-40f3-9289-88f5ec081ab9); stroke-width:0px;"></path><path d="m29.06,40.91l15.58,10.66.63.43,42.67,29.19,3.48,2.38,12.73,8.71c14.19-20.73,8.88-49.04-11.86-63.23-20.73-14.19-49.04-8.88-63.23,11.86Z" style="fill:url(#uuid-9ef529fa-570e-4d6c-98ae-23eb8d8b7414); stroke-width:0px;"></path><path d="m21.49,97.37c-16.97-24.87-10.53-58.91,14.34-75.87l-6.76-9.91C-1.32,32.31-9.15,73.74,11.58,104.13s62.16,38.21,92.55,17.49l-6.76-9.91c-24.87,16.97-58.91,10.53-75.87-14.34Z" style="fill:url(#uuid-37887cb2-17c7-45c0-b521-0eef24caeb44); stroke-width:0px;"></path><path d="m121.62,29.07C100.89-1.32,59.45-9.15,29.07,11.58l6.76,9.91c24.87-16.97,58.91-10.53,75.87,14.34s10.53,58.91-14.34,75.87l6.76,9.91c30.39-20.73,38.21-62.16,17.49-92.55Z" style="fill:url(#uuid-fee02b83-0944-4965-b73f-939af3150759); stroke-width:0px;"></path></svg>